<!-- <svg width="45" height="45" viewBox="0 0 24 24" fill="none" xmlns="http://www.w3.org/2000/svg">
<path stroke="#94a3b8" stroke-width="0" d="M6.02958 19.4012C5.97501 19.9508 6.3763 20.4405 6.92589 20.4951C7.47547 20.5497 7.96523 20.1484 8.01979 19.5988L6.02958 19.4012ZM15.9802 19.5988C16.0348 20.1484 16.5245 20.5497 17.0741 20.4951C17.6237 20.4405 18.025 19.9508 17.9704 19.4012L15.9802 19.5988ZM20 12C20 16.4183 16.4183 20 12 20V22C17.5228 22 22 17.5228 22 12H20ZM12 20C7.58172 20 4 16.4183 4 12H2C2 17.5228 6.47715 22 12 22V20ZM4 12C4 7.58172 7.58172 4 12 4V2C6.47715 2 2 6.47715 2 12H4ZM12 4C16.4183 4 20 7.58172 20 12H22C22 6.47715 17.5228 2 12 2V4ZM13 10C13 10.5523 12.5523 11 12 11V13C13.6569 13 15 11.6569 15 10H13ZM12 11C11.4477 11 11 10.5523 11 10H9C9 11.6569 10.3431 13 12 13V11ZM11 10C11 9.44772 11.4477 9 12 9V7C10.3431 7 9 8.34315 9 10H11ZM12 9C12.5523 9 13 9.44772 13 10H15C15 8.34315 13.6569 7 12 7V9ZM8.01979 19.5988C8.22038 17.5785 9.92646 16 12 16V14C8.88819 14 6.33072 16.3681 6.02958 19.4012L8.01979 19.5988ZM12 16C14.0735 16 15.7796 17.5785 15.9802 19.5988L17.9704 19.4012C17.6693 16.3681 15.1118 14 12 14V16Z" fill="#94a3b8"/>
</svg>
 -->

<svg width="45" height="45" class="svg-icon" style="width: 1em; height: 1em;vertical-align: middle;fill: currentColor;overflow: hidden;" viewBox="0 0 1024 1024" version="1.1" xmlns="http://www.w3.org/2000/svg"><path stroke="#94a3b8" d="M512 62.08A449.92 449.92 0 1 0 961.92 512 449.92 449.92 0 0 0 512 62.08z m0 135.04a135.04 135.04 0 1 1-135.04 135.04A134.72 134.72 0 0 1 512 197.12z m0 640a323.84 323.84 0 0 1-269.76-144.96c0-89.6 179.84-138.56 269.76-138.56s268.48 48.96 269.76 138.56A323.84 323.84 0 0 1 512 835.84z" fill="#94a3b8"  /></svg>