<svg width="24" height="24" viewBox="0 0 24 24" fill="none" xmlns="http://www.w3.org/2000/svg">
<path d="M12.5473 14.2346L13.2515 13.5246L12.5473 14.2346ZM14.606 15.5991L13.9019 14.8891L13.9019 14.8891L14.606 15.5991ZM18.22 19.9628L18.3258 20.9572H18.3258L18.22 19.9628ZM19.1642 15.6515L18.4439 16.3452L18.4517 16.3532L19.1642 15.6515ZM19.2875 17.2018C19.675 17.5953 20.3082 17.6001 20.7017 17.2126C21.0951 16.8251 21.1 16.1919 20.7124 15.7984L19.2875 17.2018ZM16.2773 14.2545L15.9764 13.3008L16.2773 14.2545ZM17.5244 14.2688L17.8471 13.3223L17.5244 14.2688ZM8.04082 14.2346L7.33666 13.5245L7.33119 13.5301L8.04082 14.2346ZM9.67922 12.9137L9.3718 11.9621H9.3718L9.67922 12.9137ZM10.9089 12.9137L11.2163 11.9621H11.2163L10.9089 12.9137ZM11 5C11.5523 5 12 4.55228 12 4C12 3.44772 11.5523 3 11 3V5ZM5.09202 19.782L5.54601 18.891H5.54601L5.09202 19.782ZM4.21799 18.908L5.10899 18.454H5.10899L4.21799 18.908ZM19.782 18.908L18.891 18.454L19.782 18.908ZM18.908 19.782L18.454 18.891L18.908 19.782ZM5.09202 4.21799L5.54601 5.10899H5.54601L5.09202 4.21799ZM4.21799 5.09202L5.10899 5.54601V5.54601L4.21799 5.09202ZM4.04193 18.2622L3.04881 18.3793V18.3793L4.04193 18.2622ZM21 13C21 12.4477 20.5523 12 20 12C19.4477 12 19 12.4477 19 13H21ZM17 9C17 9.55228 17.4477 10 18 10C18.5523 10 19 9.55228 19 9H17ZM19 3C19 2.44772 18.5523 2 18 2C17.4477 2 17 2.44772 17 3H19ZM21 7C21.5523 7 22 6.55228 22 6C22 5.44772 21.5523 5 21 5V7ZM15 5C14.4477 5 14 5.44772 14 6C14 6.55228 14.4477 7 15 7V5ZM11.8432 14.9447L13.5605 16.6477L14.9688 15.2276L13.2515 13.5246L11.8432 14.9447ZM14.9688 16.6477L15.3102 16.3092L13.9019 14.8891L13.5605 15.2276L14.9688 16.6477ZM13.5514 16.6385L17.5067 20.6637L18.9333 19.2619L14.9779 15.2368L13.5514 16.6385ZM18.4517 16.3532L19.2875 17.2018L20.7124 15.7984L19.8767 14.9498L18.4517 16.3532ZM15.3102 16.3092C15.7249 15.8979 15.9936 15.6326 16.2141 15.4471C16.4258 15.2691 16.525 15.2249 16.5781 15.2081L15.9764 13.3008C15.5671 13.4299 15.2338 13.6584 14.9269 13.9164C14.6288 14.1671 14.2931 14.5012 13.9019 14.8891L15.3102 16.3092ZM19.8845 14.9578C19.5024 14.5611 19.1743 14.2193 18.8822 13.9619C18.5813 13.6969 18.2533 13.4608 17.8471 13.3223L17.2017 15.2153C17.2543 15.2333 17.3526 15.2798 17.5601 15.4626C17.7763 15.6531 18.0387 15.9245 18.4439 16.3452L19.8845 14.9578ZM16.5781 15.2081C16.7814 15.144 16.9999 15.1465 17.2017 15.2153L17.8471 13.3223C17.2417 13.1159 16.5863 13.1084 15.9764 13.3008L16.5781 15.2081ZM8.74496 14.9447C9.1513 14.5417 9.41406 14.2823 9.62983 14.1005C9.83659 13.9264 9.93394 13.8823 9.98665 13.8652L9.3718 11.9621C8.97013 12.0919 8.64295 12.3169 8.34144 12.5708C8.04894 12.8172 7.71969 13.1448 7.33668 13.5246L8.74496 14.9447ZM13.2515 13.5246C12.8685 13.1448 12.5392 12.8172 12.2467 12.5708C11.9452 12.3168 11.618 12.0919 11.2163 11.9621L10.6015 13.8652C10.6542 13.8823 10.7516 13.9264 10.9583 14.1005C11.1741 14.2823 11.4368 14.5417 11.8432 14.9447L13.2515 13.5246ZM9.98665 13.8652C10.1865 13.8007 10.4016 13.8007 10.6015 13.8652L11.2163 11.9621C10.6168 11.7684 9.97139 11.7684 9.3718 11.9621L9.98665 13.8652ZM7.2 5H11V3H7.2V5ZM16.8 19H7.2V21H16.8V19ZM5 16.8V7.2H3V16.8H5ZM7.2 19C6.62345 19 6.25117 18.9992 5.96784 18.9761C5.69617 18.9539 5.59545 18.9162 5.54601 18.891L4.63803 20.673C5.01641 20.8658 5.40963 20.9371 5.80497 20.9694C6.18864 21.0008 6.65645 21 7.2 21V19ZM5.54601 18.891C5.35785 18.7951 5.20487 18.6422 5.10899 18.454L3.32698 19.362C3.6146 19.9265 4.07354 20.3854 4.63803 20.673L5.54601 18.891ZM19 16.8C19 17.3766 18.9992 17.7488 18.9761 18.0322C18.9539 18.3038 18.9162 18.4045 18.891 18.454L20.673 19.362C20.8658 18.9836 20.9371 18.5904 20.9694 18.195C21.0008 17.8114 21 17.3436 21 16.8H19ZM16.8 21C17.3987 21 17.9107 21.0013 18.3258 20.9572L18.1142 18.9684C17.8299 18.9987 17.4439 19 16.8 19V21ZM18.3258 20.9572C18.6765 20.9199 19.0245 20.8449 19.362 20.673L18.454 18.891C18.4104 18.9132 18.325 18.946 18.1142 18.9684L18.3258 20.9572ZM18.891 18.454C18.7951 18.6422 18.6422 18.7951 18.454 18.891L19.362 20.673C19.9265 20.3854 20.3854 19.9265 20.673 19.362L18.891 18.454ZM7.2 3C6.65645 3 6.18864 2.99922 5.80497 3.03057C5.40963 3.06287 5.01641 3.13419 4.63803 3.32698L5.54601 5.10899C5.59545 5.0838 5.69617 5.04612 5.96784 5.02393C6.25117 5.00078 6.62345 5 7.2 5V3ZM5 7.2C5 6.62345 5.00078 6.25117 5.02393 5.96784C5.04612 5.69617 5.0838 5.59545 5.10899 5.54601L3.32698 4.63803C3.13419 5.01641 3.06287 5.40963 3.03057 5.80497C2.99922 6.18864 3 6.65645 3 7.2H5ZM4.63803 3.32698C4.07354 3.6146 3.6146 4.07354 3.32698 4.63803L5.10899 5.54601C5.20487 5.35785 5.35785 5.20487 5.54601 5.10899L4.63803 3.32698ZM3 16.8C3 17.421 2.99834 17.9512 3.04881 18.3793L5.03505 18.1451C5.00166 17.8619 5 17.4721 5 16.8H3ZM3.04881 18.3793C3.08803 18.712 3.16376 19.0416 3.32698 19.362L5.10899 18.454C5.08791 18.4126 5.05724 18.3333 5.03505 18.1451L3.04881 18.3793ZM4.75156 18.9668L8.75045 14.9392L7.33119 13.5301L3.3323 17.5576L4.75156 18.9668ZM19 13V16.8H21V13H19ZM19 9V6H17V9H19ZM19 6V3H17V6H19ZM21 5H18V7H21V5ZM18 5H15V7H18V5Z" fill="#324156"/>
</svg>
